<svg xmlns="http://www.w3.org/2000/svg" xmlns:xlink="http://www.w3.org/1999/xlink" width="1920" zoomAndPan="magnify" viewBox="0 0 1440 809.999993" height="1080" preserveAspectRatio="xMidYMid meet" version="1.0"><defs><g/><clipPath id="a087247ace"><path d="M 597 185.269531 L 688 185.269531 L 688 299 L 597 299 Z M 597 185.269531 " clip-rule="nonzero"/></clipPath><clipPath id="7c28ea13b6"><path d="M 712 185.269531 L 803 185.269531 L 803 299 L 712 299 Z M 712 185.269531 " clip-rule="nonzero"/></clipPath><clipPath id="dfbc951710"><path d="M 568.015625 185.269531 L 640 185.269531 L 640 382 L 568.015625 382 Z M 568.015625 185.269531 " clip-rule="nonzero"/></clipPath><clipPath id="4446872c0d"><path d="M 801 322 L 859.765625 322 L 859.765625 381 L 801 381 Z M 801 322 " clip-rule="nonzero"/></clipPath><clipPath id="239b95f352"><path d="M 683 185.269531 L 755 185.269531 L 755 382 L 683 382 Z M 683 185.269531 " clip-rule="nonzero"/></clipPath><clipPath id="344407acf6"><path d="M 0.320312 27 L 131 27 L 131 121 L 0.320312 121 Z M 0.320312 27 " clip-rule="nonzero"/></clipPath><clipPath id="b67d60504e"><rect x="0" width="845" y="0" height="161"/></clipPath></defs><path fill="#000000" d="M 687.519531 259.960938 L 687.519531 340.597656 L 685.851562 340.597656 L 685.851562 259.960938 C 685.847656 258.976562 685.800781 257.996094 685.699219 257.015625 C 685.601562 256.039062 685.457031 255.066406 685.261719 254.101562 C 685.070312 253.136719 684.828125 252.183594 684.542969 251.242188 C 684.257812 250.300781 683.925781 249.375 683.546875 248.46875 C 683.167969 247.558594 682.75 246.671875 682.285156 245.804688 C 681.820312 244.9375 681.316406 244.09375 680.769531 243.273438 C 680.222656 242.457031 679.636719 241.667969 679.011719 240.90625 C 678.386719 240.148438 677.726562 239.417969 677.03125 238.722656 C 676.335938 238.027344 675.609375 237.367188 674.851562 236.742188 C 674.089844 236.117188 673.300781 235.53125 672.484375 234.984375 C 671.667969 234.4375 670.824219 233.933594 669.957031 233.46875 C 669.089844 233.003906 668.203125 232.582031 667.296875 232.203125 C 666.386719 231.828125 665.464844 231.496094 664.523438 231.207031 C 663.582031 230.921875 662.628906 230.679688 661.664062 230.488281 C 660.703125 230.292969 659.730469 230.148438 658.753906 230.050781 C 657.773438 229.949219 656.792969 229.902344 655.808594 229.898438 L 638.886719 229.898438 L 638.886719 228.226562 L 655.808594 228.226562 C 656.847656 228.230469 657.882812 228.285156 658.914062 228.386719 C 659.949219 228.492188 660.972656 228.644531 661.992188 228.847656 C 663.007812 229.054688 664.015625 229.308594 665.007812 229.609375 C 666 229.914062 666.976562 230.261719 667.933594 230.660156 C 668.894531 231.058594 669.828125 231.503906 670.746094 231.996094 C 671.660156 232.484375 672.546875 233.019531 673.410156 233.597656 C 674.273438 234.175781 675.105469 234.792969 675.910156 235.453125 C 676.710938 236.109375 677.480469 236.808594 678.214844 237.542969 C 678.945312 238.277344 679.644531 239.046875 680.300781 239.847656 C 680.960938 240.652344 681.578125 241.484375 682.15625 242.347656 C 682.734375 243.210938 683.265625 244.101562 683.757812 245.015625 C 684.246094 245.929688 684.691406 246.867188 685.089844 247.828125 C 685.488281 248.789062 685.835938 249.765625 686.140625 250.757812 C 686.441406 251.75 686.695312 252.757812 686.898438 253.777344 C 687.105469 254.792969 687.257812 255.820312 687.363281 256.851562 C 687.464844 257.886719 687.519531 258.921875 687.519531 259.960938 Z M 687.519531 259.960938 " fill-opacity="1" fill-rule="nonzero"/><g clip-path="url(#a087247ace)"><path fill="#000000" d="M 687.519531 217.421875 L 687.519531 298.082031 L 685.851562 298.082031 L 685.851562 217.421875 C 685.847656 216.4375 685.796875 215.457031 685.699219 214.476562 C 685.601562 213.5 685.457031 212.527344 685.261719 211.5625 C 685.066406 210.597656 684.828125 209.644531 684.542969 208.703125 C 684.253906 207.761719 683.921875 206.835938 683.542969 205.929688 C 683.167969 205.019531 682.746094 204.132812 682.28125 203.265625 C 681.816406 202.398438 681.3125 201.554688 680.765625 200.738281 C 680.21875 199.917969 679.632812 199.128906 679.007812 198.371094 C 678.386719 197.609375 677.726562 196.882812 677.03125 196.1875 C 676.335938 195.492188 675.609375 194.832031 674.847656 194.207031 C 674.089844 193.582031 673.300781 192.996094 672.480469 192.449219 C 671.664062 191.902344 670.824219 191.394531 669.957031 190.929688 C 669.089844 190.464844 668.203125 190.046875 667.292969 189.667969 C 666.386719 189.289062 665.460938 188.957031 664.523438 188.671875 C 663.582031 188.382812 662.628906 188.144531 661.664062 187.949219 C 660.703125 187.753906 659.730469 187.609375 658.753906 187.511719 C 657.773438 187.410156 656.792969 187.363281 655.808594 187.359375 L 597.160156 187.359375 L 597.160156 185.6875 L 655.808594 185.6875 C 656.847656 185.691406 657.882812 185.746094 658.914062 185.847656 C 659.949219 185.953125 660.972656 186.105469 661.992188 186.3125 C 663.007812 186.515625 664.015625 186.769531 665.007812 187.070312 C 666 187.375 666.976562 187.726562 667.933594 188.125 C 668.890625 188.523438 669.828125 188.96875 670.742188 189.457031 C 671.65625 189.949219 672.546875 190.480469 673.410156 191.058594 C 674.273438 191.636719 675.105469 192.253906 675.90625 192.914062 C 676.707031 193.574219 677.476562 194.269531 678.210938 195.003906 C 678.945312 195.738281 679.640625 196.507812 680.300781 197.3125 C 680.957031 198.113281 681.574219 198.945312 682.152344 199.808594 C 682.730469 200.671875 683.265625 201.5625 683.753906 202.476562 C 684.242188 203.394531 684.6875 204.332031 685.085938 205.289062 C 685.484375 206.25 685.835938 207.226562 686.136719 208.21875 C 686.441406 209.210938 686.695312 210.21875 686.898438 211.238281 C 687.101562 212.253906 687.257812 213.28125 687.359375 214.3125 C 687.464844 215.347656 687.519531 216.382812 687.519531 217.421875 Z M 687.519531 217.421875 " fill-opacity="1" fill-rule="nonzero"/></g><g clip-path="url(#7c28ea13b6)"><path fill="#000000" d="M 802.730469 217.421875 L 802.730469 298.082031 L 801.0625 298.082031 L 801.0625 217.421875 C 801.058594 216.4375 801.007812 215.457031 800.910156 214.476562 C 800.8125 213.5 800.664062 212.527344 800.472656 211.5625 C 800.277344 210.597656 800.039062 209.644531 799.75 208.703125 C 799.464844 207.761719 799.132812 206.835938 798.753906 205.929688 C 798.378906 205.019531 797.957031 204.132812 797.492188 203.265625 C 797.027344 202.398438 796.523438 201.554688 795.976562 200.738281 C 795.429688 199.917969 794.84375 199.128906 794.21875 198.371094 C 793.59375 197.609375 792.9375 196.882812 792.242188 196.1875 C 791.546875 195.492188 790.816406 194.832031 790.058594 194.207031 C 789.296875 193.582031 788.507812 192.996094 787.691406 192.449219 C 786.875 191.902344 786.03125 191.394531 785.167969 190.929688 C 784.300781 190.464844 783.414062 190.046875 782.503906 189.667969 C 781.597656 189.289062 780.671875 188.957031 779.730469 188.671875 C 778.792969 188.382812 777.839844 188.144531 776.875 187.949219 C 775.910156 187.753906 774.941406 187.609375 773.960938 187.511719 C 772.984375 187.410156 772.003906 187.363281 771.019531 187.359375 L 712.347656 187.359375 L 712.347656 185.6875 L 770.96875 185.6875 C 772.007812 185.691406 773.042969 185.742188 774.078125 185.84375 C 775.113281 185.945312 776.140625 186.097656 777.15625 186.300781 C 778.175781 186.503906 779.183594 186.757812 780.175781 187.058594 C 781.171875 187.363281 782.148438 187.710938 783.109375 188.109375 C 784.066406 188.507812 785.007812 188.953125 785.921875 189.441406 C 786.839844 189.929688 787.730469 190.464844 788.59375 191.042969 C 789.457031 191.621094 790.292969 192.238281 791.09375 192.898438 C 791.898438 193.554688 792.667969 194.253906 793.402344 194.988281 C 794.136719 195.722656 794.835938 196.492188 795.496094 197.292969 C 796.15625 198.097656 796.773438 198.929688 797.351562 199.792969 C 797.929688 200.65625 798.464844 201.546875 798.957031 202.464844 C 799.449219 203.378906 799.890625 204.320312 800.292969 205.277344 C 800.691406 206.238281 801.042969 207.214844 801.34375 208.210938 C 801.648438 209.203125 801.902344 210.210938 802.105469 211.230469 C 802.3125 212.25 802.464844 213.277344 802.570312 214.3125 C 802.675781 215.34375 802.726562 216.382812 802.730469 217.421875 Z M 802.730469 217.421875 " fill-opacity="1" fill-rule="nonzero"/></g><g clip-path="url(#dfbc951710)"><path fill="#000000" d="M 639.304688 235.058594 L 639.304688 381.609375 L 623.339844 381.609375 C 621.535156 381.605469 619.730469 381.515625 617.933594 381.335938 C 616.136719 381.160156 614.355469 380.890625 612.582031 380.539062 C 610.8125 380.183594 609.0625 379.742188 607.335938 379.21875 C 605.605469 378.691406 603.910156 378.082031 602.242188 377.390625 C 600.574219 376.695312 598.941406 375.921875 597.351562 375.070312 C 595.757812 374.21875 594.210938 373.289062 592.710938 372.285156 C 591.207031 371.277344 589.761719 370.203125 588.363281 369.054688 C 586.96875 367.910156 585.632812 366.695312 584.355469 365.417969 C 583.078125 364.140625 581.867188 362.804688 580.722656 361.40625 C 579.574219 360.007812 578.5 358.558594 577.496094 357.054688 C 576.492188 355.554688 575.566406 354.003906 574.714844 352.410156 C 573.863281 350.816406 573.089844 349.1875 572.398438 347.515625 C 571.707031 345.847656 571.097656 344.148438 570.574219 342.417969 C 570.050781 340.691406 569.609375 338.9375 569.257812 337.167969 C 568.902344 335.394531 568.636719 333.609375 568.457031 331.808594 C 568.28125 330.011719 568.191406 328.207031 568.1875 326.402344 L 568.1875 185.269531 L 589.550781 185.269531 C 591.179688 185.273438 592.804688 185.355469 594.425781 185.515625 C 596.046875 185.675781 597.65625 185.917969 599.253906 186.238281 C 600.851562 186.558594 602.429688 186.953125 603.988281 187.429688 C 605.546875 187.902344 607.078125 188.453125 608.582031 189.078125 C 610.085938 189.703125 611.554688 190.398438 612.992188 191.167969 C 614.429688 191.9375 615.824219 192.773438 617.179688 193.679688 C 618.53125 194.585938 619.839844 195.554688 621.097656 196.589844 C 622.355469 197.625 623.5625 198.71875 624.714844 199.871094 C 625.867188 201.023438 626.957031 202.230469 627.992188 203.488281 C 629.027344 204.75 629.996094 206.058594 630.902344 207.414062 C 631.804688 208.765625 632.644531 210.164062 633.410156 211.601562 C 634.179688 213.039062 634.875 214.507812 635.5 216.015625 C 636.125 217.519531 636.675781 219.054688 637.148438 220.613281 C 637.621094 222.171875 638.019531 223.75 638.339844 225.351562 C 638.65625 226.949219 638.898438 228.558594 639.058594 230.179688 C 639.21875 231.804688 639.300781 233.429688 639.304688 235.058594 Z M 639.304688 235.058594 " fill-opacity="1" fill-rule="nonzero"/></g><g clip-path="url(#4446872c0d)"><path fill="#000000" d="M 859.617188 351.613281 C 859.617188 352.574219 859.570312 353.53125 859.476562 354.484375 C 859.382812 355.441406 859.242188 356.390625 859.054688 357.332031 C 858.871094 358.273438 858.636719 359.203125 858.359375 360.121094 C 858.082031 361.039062 857.757812 361.941406 857.390625 362.828125 C 857.023438 363.714844 856.617188 364.582031 856.164062 365.429688 C 855.710938 366.273438 855.21875 367.097656 854.6875 367.894531 C 854.152344 368.691406 853.582031 369.464844 852.976562 370.207031 C 852.367188 370.949219 851.722656 371.65625 851.046875 372.335938 C 850.367188 373.015625 849.65625 373.660156 848.917969 374.269531 C 848.175781 374.878906 847.40625 375.449219 846.609375 375.980469 C 845.8125 376.515625 844.988281 377.007812 844.144531 377.460938 C 843.296875 377.914062 842.433594 378.324219 841.546875 378.691406 C 840.660156 379.058594 839.757812 379.382812 838.839844 379.660156 C 837.921875 379.941406 836.996094 380.171875 836.054688 380.359375 C 835.113281 380.546875 834.164062 380.6875 833.210938 380.78125 C 832.257812 380.878906 831.300781 380.925781 830.339844 380.925781 C 829.382812 380.925781 828.425781 380.878906 827.46875 380.785156 C 826.515625 380.691406 825.566406 380.550781 824.628906 380.363281 C 823.6875 380.175781 822.757812 379.941406 821.839844 379.664062 C 820.921875 379.386719 820.019531 379.0625 819.132812 378.695312 C 818.246094 378.328125 817.382812 377.917969 816.535156 377.464844 C 815.691406 377.015625 814.867188 376.523438 814.070312 375.988281 C 813.273438 375.457031 812.503906 374.882812 811.761719 374.277344 C 811.019531 373.667969 810.3125 373.023438 809.632812 372.34375 C 808.953125 371.667969 808.3125 370.957031 807.703125 370.214844 C 807.09375 369.472656 806.523438 368.703125 805.988281 367.90625 C 805.457031 367.105469 804.964844 366.285156 804.511719 365.4375 C 804.058594 364.589844 803.648438 363.726562 803.285156 362.839844 C 802.917969 361.953125 802.59375 361.050781 802.316406 360.128906 C 802.035156 359.210938 801.804688 358.28125 801.617188 357.339844 C 801.429688 356.398438 801.289062 355.453125 801.195312 354.496094 C 801.101562 353.542969 801.054688 352.582031 801.054688 351.625 C 801.054688 350.664062 801.101562 349.707031 801.195312 348.75 C 801.289062 347.796875 801.429688 346.847656 801.613281 345.90625 C 801.800781 344.964844 802.035156 344.035156 802.3125 343.117188 C 802.589844 342.199219 802.914062 341.296875 803.28125 340.410156 C 803.648438 339.523438 804.058594 338.65625 804.507812 337.808594 C 804.960938 336.964844 805.453125 336.140625 805.988281 335.34375 C 806.519531 334.542969 807.089844 333.773438 807.699219 333.03125 C 808.308594 332.289062 808.949219 331.582031 809.628906 330.902344 C 810.308594 330.222656 811.015625 329.578125 811.757812 328.96875 C 812.5 328.359375 813.269531 327.789062 814.066406 327.257812 C 814.863281 326.722656 815.683594 326.230469 816.53125 325.777344 C 817.375 325.324219 818.242188 324.917969 819.128906 324.546875 C 820.015625 324.179688 820.917969 323.859375 821.835938 323.578125 C 822.753906 323.300781 823.679688 323.066406 824.621094 322.882812 C 825.5625 322.695312 826.511719 322.554688 827.464844 322.460938 C 828.417969 322.363281 829.375 322.316406 830.335938 322.316406 C 831.292969 322.316406 832.25 322.363281 833.207031 322.457031 C 834.160156 322.550781 835.105469 322.691406 836.046875 322.878906 C 836.988281 323.066406 837.917969 323.300781 838.835938 323.578125 C 839.753906 323.855469 840.65625 324.179688 841.539062 324.546875 C 842.425781 324.914062 843.292969 325.320312 844.136719 325.773438 C 844.984375 326.226562 845.804688 326.71875 846.601562 327.253906 C 847.398438 327.785156 848.167969 328.355469 848.910156 328.964844 C 849.652344 329.574219 850.363281 330.214844 851.039062 330.894531 C 851.71875 331.574219 852.363281 332.285156 852.96875 333.027344 C 853.578125 333.765625 854.148438 334.535156 854.683594 335.335938 C 855.214844 336.132812 855.707031 336.953125 856.160156 337.800781 C 856.613281 338.648438 857.019531 339.515625 857.386719 340.398438 C 857.753906 341.285156 858.078125 342.1875 858.355469 343.109375 C 858.636719 344.027344 858.867188 344.957031 859.054688 345.898438 C 859.242188 346.835938 859.382812 347.785156 859.476562 348.742188 C 859.570312 349.695312 859.617188 350.652344 859.617188 351.613281 Z M 859.617188 351.613281 " fill-opacity="1" fill-rule="nonzero"/></g><path fill="#000000" d="M 802.730469 259.960938 L 802.730469 340.597656 L 801.0625 340.597656 L 801.0625 259.960938 C 801.058594 258.976562 801.007812 257.996094 800.910156 257.015625 C 800.8125 256.039062 800.667969 255.066406 800.472656 254.101562 C 800.28125 253.136719 800.039062 252.183594 799.753906 251.242188 C 799.464844 250.300781 799.132812 249.375 798.757812 248.46875 C 798.378906 247.558594 797.957031 246.671875 797.496094 245.804688 C 797.03125 244.9375 796.523438 244.09375 795.976562 243.273438 C 795.429688 242.457031 794.847656 241.667969 794.222656 240.90625 C 793.597656 240.148438 792.9375 239.417969 792.242188 238.722656 C 791.546875 238.027344 790.820312 237.367188 790.058594 236.742188 C 789.300781 236.117188 788.511719 235.53125 787.695312 234.984375 C 786.875 234.4375 786.035156 233.933594 785.167969 233.46875 C 784.300781 233.003906 783.414062 232.582031 782.503906 232.203125 C 781.597656 231.828125 780.671875 231.496094 779.734375 231.207031 C 778.792969 230.921875 777.839844 230.679688 776.875 230.488281 C 775.910156 230.292969 774.941406 230.148438 773.960938 230.050781 C 772.984375 229.949219 772.003906 229.902344 771.019531 229.898438 L 754.070312 229.898438 L 754.070312 228.226562 L 770.96875 228.226562 C 772.007812 228.230469 773.046875 228.28125 774.078125 228.382812 C 775.113281 228.484375 776.140625 228.636719 777.160156 228.839844 C 778.175781 229.042969 779.183594 229.296875 780.179688 229.597656 C 781.171875 229.898438 782.148438 230.25 783.109375 230.648438 C 784.070312 231.046875 785.007812 231.488281 785.925781 231.980469 C 786.839844 232.46875 787.730469 233.003906 788.59375 233.578125 C 789.460938 234.15625 790.292969 234.773438 791.097656 235.433594 C 791.902344 236.09375 792.667969 236.789062 793.40625 237.523438 C 794.140625 238.257812 794.839844 239.027344 795.496094 239.832031 C 796.15625 240.632812 796.777344 241.46875 797.355469 242.332031 C 797.933594 243.195312 798.46875 244.085938 798.957031 245.003906 C 799.449219 245.917969 799.894531 246.855469 800.292969 247.816406 C 800.691406 248.777344 801.042969 249.753906 801.347656 250.75 C 801.648438 251.742188 801.902344 252.75 802.109375 253.769531 C 802.3125 254.789062 802.46875 255.816406 802.570312 256.851562 C 802.675781 257.882812 802.726562 258.921875 802.730469 259.960938 Z M 802.730469 259.960938 " fill-opacity="1" fill-rule="nonzero"/><g clip-path="url(#239b95f352)"><path fill="#000000" d="M 754.488281 235.058594 L 754.488281 381.609375 L 738.523438 381.609375 C 736.71875 381.609375 734.914062 381.519531 733.117188 381.339844 C 731.320312 381.160156 729.535156 380.894531 727.765625 380.542969 C 725.992188 380.1875 724.242188 379.75 722.515625 379.222656 C 720.785156 378.699219 719.085938 378.089844 717.417969 377.394531 C 715.75 376.703125 714.117188 375.929688 712.523438 375.078125 C 710.933594 374.226562 709.382812 373.296875 707.882812 372.292969 C 706.378906 371.289062 704.929688 370.210938 703.535156 369.066406 C 702.136719 367.917969 700.800781 366.707031 699.523438 365.425781 C 698.246094 364.148438 697.035156 362.8125 695.886719 361.414062 C 694.742188 360.015625 693.667969 358.566406 692.664062 357.0625 C 691.660156 355.5625 690.730469 354.011719 689.878906 352.417969 C 689.027344 350.824219 688.253906 349.191406 687.5625 347.523438 C 686.871094 345.851562 686.261719 344.152344 685.734375 342.421875 C 685.210938 340.695312 684.769531 338.941406 684.417969 337.167969 C 684.0625 335.398438 683.796875 333.609375 683.617188 331.8125 C 683.441406 330.011719 683.351562 328.210938 683.347656 326.402344 L 683.347656 185.269531 L 704.710938 185.269531 C 706.339844 185.273438 707.964844 185.351562 709.585938 185.515625 C 711.207031 185.675781 712.820312 185.914062 714.417969 186.234375 C 716.015625 186.550781 717.59375 186.949219 719.152344 187.421875 C 720.710938 187.894531 722.242188 188.445312 723.75 189.070312 C 725.253906 189.695312 726.726562 190.390625 728.164062 191.160156 C 729.597656 191.929688 730.996094 192.765625 732.351562 193.671875 C 733.703125 194.578125 735.011719 195.546875 736.273438 196.582031 C 737.53125 197.617188 738.738281 198.710938 739.890625 199.863281 C 741.042969 201.015625 742.136719 202.222656 743.171875 203.480469 C 744.203125 204.742188 745.175781 206.050781 746.082031 207.40625 C 746.984375 208.761719 747.824219 210.15625 748.59375 211.59375 C 749.363281 213.03125 750.058594 214.503906 750.683594 216.007812 C 751.308594 217.515625 751.855469 219.046875 752.332031 220.609375 C 752.804688 222.167969 753.203125 223.75 753.523438 225.347656 C 753.839844 226.945312 754.082031 228.558594 754.242188 230.179688 C 754.40625 231.800781 754.488281 233.429688 754.488281 235.058594 Z M 754.488281 235.058594 " fill-opacity="1" fill-rule="nonzero"/></g><g transform="matrix(1, 0, 0, 1, 274, 397)"><g clip-path="url(#b67d60504e)"><g clip-path="url(#344407acf6)"><g fill="#000000" fill-opacity="1"><g transform="translate(0.369065, 120.584024)"><g><path d="M 9.21875 -93.34375 L 8.90625 -91.109375 C 8.90625 -91.109375 9.515625 -90.84375 10.734375 -90.3125 C 11.953125 -89.789062 13.117188 -88.707031 14.234375 -87.0625 C 15.347656 -85.414062 15.742188 -82.898438 15.421875 -79.515625 L 8.90625 -13.828125 C 8.582031 -10.335938 7.707031 -7.769531 6.28125 -6.125 C 4.851562 -4.476562 3.472656 -3.414062 2.140625 -2.9375 C 0.816406 -2.457031 0.15625 -2.21875 0.15625 -2.21875 L 0 0 L 24.484375 0 L 24.640625 -2.21875 C 24.640625 -2.21875 24.03125 -2.429688 22.8125 -2.859375 C 21.59375 -3.285156 20.425781 -4.316406 19.3125 -5.953125 C 18.207031 -7.597656 17.8125 -10.28125 18.125 -14 L 23.53125 -67.265625 L 48.984375 0 L 63.453125 0 L 90.484375 -69.328125 L 96.203125 -14.625 C 96.628906 -10.914062 96.285156 -8.1875 95.171875 -6.4375 C 94.054688 -4.6875 92.890625 -3.546875 91.671875 -3.015625 C 90.453125 -2.484375 89.84375 -2.21875 89.84375 -2.21875 L 90.15625 0 L 130.234375 0 L 130.078125 -2.21875 C 130.078125 -2.21875 129.410156 -2.457031 128.078125 -2.9375 C 126.753906 -3.414062 125.378906 -4.476562 123.953125 -6.125 C 122.523438 -7.769531 121.597656 -10.335938 121.171875 -13.828125 L 114.328125 -79.515625 C 114.015625 -82.898438 114.410156 -85.414062 115.515625 -87.0625 C 116.628906 -88.707031 117.796875 -89.789062 119.015625 -90.3125 C 120.242188 -90.84375 120.859375 -91.109375 120.859375 -91.109375 L 120.53125 -93.34375 L 80.296875 -93.34375 L 80.296875 -91.28125 C 82.316406 -91.28125 83.828125 -90.191406 84.828125 -88.015625 C 85.835938 -85.835938 85.707031 -83.160156 84.4375 -79.984375 L 62.015625 -22.734375 L 41.34375 -79.828125 C 40.382812 -82.691406 40.117188 -84.914062 40.546875 -86.5 C 40.972656 -88.09375 41.6875 -89.234375 42.6875 -89.921875 C 43.695312 -90.609375 44.414062 -91.003906 44.84375 -91.109375 L 44.046875 -93.34375 Z M 9.21875 -93.34375 "/></g></g></g></g><g fill="#000000" fill-opacity="1"><g transform="translate(129.958471, 120.584024)"><g><path d="M 46.28125 -93.5 C 39.914062 -93.5 33.921875 -92.28125 28.296875 -89.84375 C 22.679688 -87.40625 17.753906 -84.066406 13.515625 -79.828125 C 9.273438 -75.585938 5.960938 -70.628906 3.578125 -64.953125 C 1.191406 -59.285156 0 -53.21875 0 -46.75 C 0 -40.28125 1.191406 -34.234375 3.578125 -28.609375 C 5.960938 -22.992188 9.273438 -18.039062 13.515625 -13.75 C 17.753906 -9.457031 22.679688 -6.09375 28.296875 -3.65625 C 33.921875 -1.21875 39.914062 0 46.28125 0 C 52.632812 0 58.617188 -1.21875 64.234375 -3.65625 C 69.859375 -6.09375 74.789062 -9.457031 79.03125 -13.75 C 83.269531 -18.039062 86.582031 -22.992188 88.96875 -28.609375 C 91.351562 -34.234375 92.546875 -40.28125 92.546875 -46.75 C 92.546875 -53.21875 91.351562 -59.285156 88.96875 -64.953125 C 86.582031 -70.628906 83.269531 -75.585938 79.03125 -79.828125 C 74.789062 -84.066406 69.859375 -87.40625 64.234375 -89.84375 C 58.617188 -92.28125 52.632812 -93.5 46.28125 -93.5 Z M 46.28125 -89.046875 C 50.195312 -89.046875 53.742188 -87.164062 56.921875 -83.40625 C 60.109375 -79.644531 62.65625 -74.632812 64.5625 -68.375 C 66.46875 -62.125 67.421875 -55.179688 67.421875 -47.546875 C 67.421875 -39.910156 66.46875 -32.9375 64.5625 -26.625 C 62.65625 -20.320312 60.109375 -15.289062 56.921875 -11.53125 C 53.742188 -7.769531 50.195312 -5.890625 46.28125 -5.890625 C 42.457031 -5.890625 38.925781 -7.769531 35.6875 -11.53125 C 32.457031 -15.289062 29.890625 -20.320312 27.984375 -26.625 C 26.078125 -32.9375 25.125 -39.910156 25.125 -47.546875 C 25.125 -55.179688 26.078125 -62.125 27.984375 -68.375 C 29.890625 -74.632812 32.457031 -79.644531 35.6875 -83.40625 C 38.925781 -87.164062 42.457031 -89.046875 46.28125 -89.046875 Z M 46.28125 -89.046875 "/></g></g></g><g fill="#000000" fill-opacity="1"><g transform="translate(222.817679, 120.584024)"><g><path d="M 9.21875 -93.34375 L 8.90625 -91.109375 C 8.90625 -91.109375 9.515625 -90.84375 10.734375 -90.3125 C 11.953125 -89.789062 13.117188 -88.707031 14.234375 -87.0625 C 15.347656 -85.414062 15.742188 -82.898438 15.421875 -79.515625 L 8.90625 -13.828125 C 8.582031 -10.335938 7.707031 -7.769531 6.28125 -6.125 C 4.851562 -4.476562 3.472656 -3.414062 2.140625 -2.9375 C 0.816406 -2.457031 0.15625 -2.21875 0.15625 -2.21875 L 0 0 L 24.484375 0 L 24.640625 -2.21875 C 24.640625 -2.21875 24.03125 -2.429688 22.8125 -2.859375 C 21.59375 -3.285156 20.425781 -4.316406 19.3125 -5.953125 C 18.207031 -7.597656 17.8125 -10.28125 18.125 -14 L 23.53125 -67.265625 L 48.984375 0 L 63.453125 0 L 90.484375 -69.328125 L 96.203125 -14.625 C 96.628906 -10.914062 96.285156 -8.1875 95.171875 -6.4375 C 94.054688 -4.6875 92.890625 -3.546875 91.671875 -3.015625 C 90.453125 -2.484375 89.84375 -2.21875 89.84375 -2.21875 L 90.15625 0 L 130.234375 0 L 130.078125 -2.21875 C 130.078125 -2.21875 129.410156 -2.457031 128.078125 -2.9375 C 126.753906 -3.414062 125.378906 -4.476562 123.953125 -6.125 C 122.523438 -7.769531 121.597656 -10.335938 121.171875 -13.828125 L 114.328125 -79.515625 C 114.015625 -82.898438 114.410156 -85.414062 115.515625 -87.0625 C 116.628906 -88.707031 117.796875 -89.789062 119.015625 -90.3125 C 120.242188 -90.84375 120.859375 -91.109375 120.859375 -91.109375 L 120.53125 -93.34375 L 80.296875 -93.34375 L 80.296875 -91.28125 C 82.316406 -91.28125 83.828125 -90.191406 84.828125 -88.015625 C 85.835938 -85.835938 85.707031 -83.160156 84.4375 -79.984375 L 62.015625 -22.734375 L 41.34375 -79.828125 C 40.382812 -82.691406 40.117188 -84.914062 40.546875 -86.5 C 40.972656 -88.09375 41.6875 -89.234375 42.6875 -89.921875 C 43.695312 -90.609375 44.414062 -91.003906 44.84375 -91.109375 L 44.046875 -93.34375 Z M 9.21875 -93.34375 "/></g></g></g><g fill="#000000" fill-opacity="1"><g transform="translate(357.813703, 120.584024)"><g><path d="M 43.5625 -88.890625 L 49.140625 -88.890625 C 52.640625 -88.890625 55.898438 -88.117188 58.921875 -86.578125 C 61.941406 -85.046875 64.613281 -83.164062 66.9375 -80.9375 C 69.269531 -78.707031 71.257812 -76.453125 72.90625 -74.171875 C 74.550781 -71.898438 75.796875 -69.992188 76.640625 -68.453125 C 77.492188 -66.921875 77.921875 -66.15625 77.921875 -66.15625 L 79.828125 -67.265625 L 75.375 -93.34375 L 0 -93.34375 L 0 -91.109375 C 0 -91.109375 0.632812 -90.84375 1.90625 -90.3125 C 3.175781 -89.789062 4.445312 -88.707031 5.71875 -87.0625 C 6.988281 -85.414062 7.625 -82.898438 7.625 -79.515625 L 7.625 -13.828125 C 7.625 -10.335938 6.988281 -7.769531 5.71875 -6.125 C 4.445312 -4.476562 3.175781 -3.414062 1.90625 -2.9375 C 0.632812 -2.457031 0 -2.21875 0 -2.21875 L 0 0 L 75.375 0 L 79.828125 -26.078125 L 77.921875 -27.1875 C 77.921875 -27.1875 77.492188 -26.414062 76.640625 -24.875 C 75.796875 -23.34375 74.550781 -21.460938 72.90625 -19.234375 C 71.257812 -17.015625 69.269531 -14.765625 66.9375 -12.484375 C 64.613281 -10.203125 61.941406 -8.289062 58.921875 -6.75 C 55.898438 -5.21875 52.640625 -4.453125 49.140625 -4.453125 L 43.890625 -4.453125 C 43.035156 -4.453125 41.707031 -4.691406 39.90625 -5.171875 C 38.101562 -5.648438 36.429688 -6.757812 34.890625 -8.5 C 33.359375 -10.25 32.59375 -13.035156 32.59375 -16.859375 L 32.59375 -47.546875 L 34.34375 -47.546875 C 37.738281 -47.546875 40.441406 -47.015625 42.453125 -45.953125 C 44.472656 -44.890625 46.007812 -43.671875 47.0625 -42.296875 C 48.125 -40.921875 48.835938 -39.703125 49.203125 -38.640625 C 49.578125 -37.578125 49.765625 -37.046875 49.765625 -37.046875 L 52 -37.375 L 52 -60.578125 L 49.765625 -60.90625 C 49.765625 -60.90625 49.578125 -60.375 49.203125 -59.3125 C 48.835938 -58.25 48.125 -57.03125 47.0625 -55.65625 C 46.007812 -54.28125 44.472656 -53.0625 42.453125 -52 C 40.441406 -50.9375 37.738281 -50.40625 34.34375 -50.40625 L 32.59375 -50.40625 L 32.59375 -76.484375 C 32.695312 -80.085938 33.382812 -82.765625 34.65625 -84.515625 C 35.9375 -86.265625 37.421875 -87.429688 39.109375 -88.015625 C 40.804688 -88.597656 42.289062 -88.890625 43.5625 -88.890625 Z M 43.5625 -88.890625 "/></g></g></g><g fill="#000000" fill-opacity="1"><g transform="translate(441.13279, 120.584024)"><g><path d="M 33.71875 -93.34375 L 0 -93.34375 L 0 -91.109375 C 0 -91.109375 0.632812 -90.921875 1.90625 -90.546875 C 3.175781 -90.179688 4.445312 -89.203125 5.71875 -87.609375 C 6.988281 -86.023438 7.625 -83.328125 7.625 -79.515625 L 7.625 -14 C 7.625 -10.28125 6.988281 -7.597656 5.71875 -5.953125 C 4.445312 -4.316406 3.175781 -3.285156 1.90625 -2.859375 C 0.632812 -2.429688 0 -2.21875 0 -2.21875 L 0 0 L 24.484375 0 L 24.484375 -2.21875 C 24.484375 -2.21875 23.847656 -2.457031 22.578125 -2.9375 C 21.304688 -3.414062 20.035156 -4.476562 18.765625 -6.125 C 17.492188 -7.769531 16.859375 -10.335938 16.859375 -13.828125 L 16.859375 -72.984375 L 66.15625 0 L 75.375 0 L 75.375 -79.515625 C 75.375 -82.898438 76.007812 -85.414062 77.28125 -87.0625 C 78.550781 -88.707031 79.820312 -89.789062 81.09375 -90.3125 C 82.363281 -90.84375 83 -91.109375 83 -91.109375 L 83 -93.34375 L 58.359375 -93.34375 L 58.359375 -91.109375 C 58.359375 -91.109375 58.992188 -90.921875 60.265625 -90.546875 C 61.535156 -90.179688 62.804688 -89.203125 64.078125 -87.609375 C 65.347656 -86.023438 65.984375 -83.328125 65.984375 -79.515625 L 66.15625 -32.4375 L 34.984375 -79.828125 C 33.179688 -82.691406 32.28125 -84.914062 32.28125 -86.5 C 32.28125 -88.09375 32.648438 -89.234375 33.390625 -89.921875 C 34.128906 -90.609375 34.710938 -91.003906 35.140625 -91.109375 Z M 33.71875 -93.34375 "/></g></g></g><g fill="#000000" fill-opacity="1"><g transform="translate(528.74509, 120.584024)"><g><path d="M 3.5 -93.34375 L 0 -72.1875 L 1.90625 -71.078125 C 1.90625 -71.078125 2.4375 -71.867188 3.5 -73.453125 C 4.5625 -75.046875 6.148438 -76.929688 8.265625 -79.109375 C 10.390625 -81.285156 12.960938 -83.300781 15.984375 -85.15625 C 19.003906 -87.007812 22.472656 -88.203125 26.390625 -88.734375 C 27.242188 -87.878906 28.015625 -86.707031 28.703125 -85.21875 C 29.390625 -83.738281 29.734375 -81.835938 29.734375 -79.515625 L 29.734375 -13.828125 C 29.734375 -10.335938 29.097656 -7.769531 27.828125 -6.125 C 26.554688 -4.476562 25.285156 -3.414062 24.015625 -2.9375 C 22.742188 -2.457031 22.109375 -2.21875 22.109375 -2.21875 L 22.109375 0 L 62.328125 0 L 62.328125 -2.21875 C 62.328125 -2.21875 61.691406 -2.484375 60.421875 -3.015625 C 59.148438 -3.546875 57.878906 -4.6875 56.609375 -6.4375 C 55.335938 -8.1875 54.703125 -10.914062 54.703125 -14.625 L 54.703125 -78.71875 C 54.703125 -81.257812 55.046875 -83.347656 55.734375 -84.984375 C 56.421875 -86.628906 57.191406 -87.878906 58.046875 -88.734375 C 61.960938 -88.203125 65.429688 -87.007812 68.453125 -85.15625 C 71.472656 -83.300781 74.039062 -81.285156 76.15625 -79.109375 C 78.28125 -76.929688 79.875 -75.046875 80.9375 -73.453125 C 82 -71.867188 82.53125 -71.078125 82.53125 -71.078125 L 84.4375 -72.1875 L 80.9375 -93.34375 Z M 3.5 -93.34375 "/></g></g></g><g fill="#000000" fill-opacity="1"><g transform="translate(616.675302, 120.584024)"><g><path d="M 7.625 -34.671875 C 7.625 -21.734375 10.882812 -12.71875 17.40625 -7.625 C 23.925781 -2.539062 33.550781 0 46.28125 0 C 59.101562 0 68.800781 -2.566406 75.375 -7.703125 C 81.945312 -12.847656 85.234375 -21.835938 85.234375 -34.671875 L 85.234375 -78.71875 C 85.234375 -82.53125 85.894531 -85.3125 87.21875 -87.0625 C 88.539062 -88.8125 89.835938 -89.921875 91.109375 -90.390625 C 92.390625 -90.867188 93.03125 -91.109375 93.03125 -91.109375 L 93.03125 -93.34375 L 52.796875 -93.34375 L 52.796875 -91.109375 C 52.796875 -91.109375 53.429688 -90.84375 54.703125 -90.3125 C 55.972656 -89.789062 57.242188 -88.707031 58.515625 -87.0625 C 59.785156 -85.414062 60.421875 -82.898438 60.421875 -79.515625 C 60.421875 -79.515625 60.421875 -78.398438 60.421875 -76.171875 C 60.421875 -73.941406 60.421875 -71.050781 60.421875 -67.5 C 60.421875 -63.945312 60.394531 -60.128906 60.34375 -56.046875 C 60.289062 -51.972656 60.265625 -48.050781 60.265625 -44.28125 C 60.265625 -40.519531 60.265625 -37.335938 60.265625 -34.734375 C 60.265625 -32.140625 60.265625 -30.523438 60.265625 -29.890625 C 60.160156 -23.953125 59.765625 -19.207031 59.078125 -15.65625 C 58.390625 -12.113281 57.0625 -9.597656 55.09375 -8.109375 C 53.132812 -6.628906 50.195312 -5.890625 46.28125 -5.890625 C 40.445312 -5.890625 36.679688 -7.71875 34.984375 -11.375 C 33.285156 -15.03125 32.4375 -21.148438 32.4375 -29.734375 C 32.4375 -30.054688 32.4375 -31.4375 32.4375 -33.875 C 32.4375 -36.3125 32.4375 -39.410156 32.4375 -43.171875 C 32.4375 -46.929688 32.460938 -50.851562 32.515625 -54.9375 C 32.566406 -59.019531 32.59375 -62.863281 32.59375 -66.46875 C 32.59375 -70.070312 32.59375 -73.015625 32.59375 -75.296875 C 32.59375 -77.578125 32.59375 -78.71875 32.59375 -78.71875 C 32.59375 -82.53125 33.226562 -85.3125 34.5 -87.0625 C 35.78125 -88.8125 37.054688 -89.921875 38.328125 -90.390625 C 39.597656 -90.867188 40.234375 -91.109375 40.234375 -91.109375 L 40.234375 -93.34375 L 0 -93.34375 L 0 -91.109375 C 0 -91.109375 0.632812 -90.84375 1.90625 -90.3125 C 3.175781 -89.789062 4.445312 -88.707031 5.71875 -87.0625 C 6.988281 -85.414062 7.625 -82.898438 7.625 -79.515625 C 7.625 -79.515625 7.625 -78.453125 7.625 -76.328125 C 7.625 -74.203125 7.625 -71.46875 7.625 -68.125 C 7.625 -64.789062 7.625 -61.242188 7.625 -57.484375 C 7.625 -53.722656 7.625 -50.117188 7.625 -46.671875 C 7.625 -43.222656 7.625 -40.410156 7.625 -38.234375 C 7.625 -36.066406 7.625 -34.878906 7.625 -34.671875 Z M 7.625 -34.671875 "/></g></g></g><g fill="#000000" fill-opacity="1"><g transform="translate(708.739323, 120.584024)"><g><path d="M 9.21875 -93.34375 L 8.90625 -91.109375 C 8.90625 -91.109375 9.515625 -90.84375 10.734375 -90.3125 C 11.953125 -89.789062 13.117188 -88.707031 14.234375 -87.0625 C 15.347656 -85.414062 15.742188 -82.898438 15.421875 -79.515625 L 8.90625 -13.828125 C 8.582031 -10.335938 7.707031 -7.769531 6.28125 -6.125 C 4.851562 -4.476562 3.472656 -3.414062 2.140625 -2.9375 C 0.816406 -2.457031 0.15625 -2.21875 0.15625 -2.21875 L 0 0 L 24.484375 0 L 24.640625 -2.21875 C 24.640625 -2.21875 24.03125 -2.429688 22.8125 -2.859375 C 21.59375 -3.285156 20.425781 -4.316406 19.3125 -5.953125 C 18.207031 -7.597656 17.8125 -10.28125 18.125 -14 L 23.53125 -67.265625 L 48.984375 0 L 63.453125 0 L 90.484375 -69.328125 L 96.203125 -14.625 C 96.628906 -10.914062 96.285156 -8.1875 95.171875 -6.4375 C 94.054688 -4.6875 92.890625 -3.546875 91.671875 -3.015625 C 90.453125 -2.484375 89.84375 -2.21875 89.84375 -2.21875 L 90.15625 0 L 130.234375 0 L 130.078125 -2.21875 C 130.078125 -2.21875 129.410156 -2.457031 128.078125 -2.9375 C 126.753906 -3.414062 125.378906 -4.476562 123.953125 -6.125 C 122.523438 -7.769531 121.597656 -10.335938 121.171875 -13.828125 L 114.328125 -79.515625 C 114.015625 -82.898438 114.410156 -85.414062 115.515625 -87.0625 C 116.628906 -88.707031 117.796875 -89.789062 119.015625 -90.3125 C 120.242188 -90.84375 120.859375 -91.109375 120.859375 -91.109375 L 120.53125 -93.34375 L 80.296875 -93.34375 L 80.296875 -91.28125 C 82.316406 -91.28125 83.828125 -90.191406 84.828125 -88.015625 C 85.835938 -85.835938 85.707031 -83.160156 84.4375 -79.984375 L 62.015625 -22.734375 L 41.34375 -79.828125 C 40.382812 -82.691406 40.117188 -84.914062 40.546875 -86.5 C 40.972656 -88.09375 41.6875 -89.234375 42.6875 -89.921875 C 43.695312 -90.609375 44.414062 -91.003906 44.84375 -91.109375 L 44.046875 -93.34375 Z M 9.21875 -93.34375 "/></g></g></g></g></g></svg>