<svg xmlns="http://www.w3.org/2000/svg" xmlns:xlink="http://www.w3.org/1999/xlink" width="500" zoomAndPan="magnify" viewBox="0 0 375 374.999991" height="500" preserveAspectRatio="xMidYMid meet" version="1.0"><defs><clipPath id="3202954c5f"><path d="M 70 88.523438 L 162 88.523438 L 162 202 L 70 202 Z M 70 88.523438 " clip-rule="nonzero"/></clipPath><clipPath id="8926e8bdcd"><path d="M 185 88.523438 L 277 88.523438 L 277 202 L 185 202 Z M 185 88.523438 " clip-rule="nonzero"/></clipPath><clipPath id="882a2fe88d"><path d="M 41.554688 88.523438 L 113 88.523438 L 113 285 L 41.554688 285 Z M 41.554688 88.523438 " clip-rule="nonzero"/></clipPath><clipPath id="71309cc567"><path d="M 274 225 L 333.304688 225 L 333.304688 285 L 274 285 Z M 274 225 " clip-rule="nonzero"/></clipPath><clipPath id="84ababb81a"><path d="M 156 88.523438 L 229 88.523438 L 229 285 L 156 285 Z M 156 88.523438 " clip-rule="nonzero"/></clipPath></defs><path fill="#ffffff" d="M 161.117188 163.195312 L 161.117188 243.8125 L 159.445312 243.8125 L 159.445312 163.195312 C 159.445312 162.210938 159.394531 161.230469 159.296875 160.25 C 159.199219 159.273438 159.050781 158.300781 158.859375 157.335938 C 158.664062 156.371094 158.425781 155.417969 158.136719 154.476562 C 157.851562 153.535156 157.519531 152.613281 157.140625 151.703125 C 156.761719 150.792969 156.34375 149.90625 155.878906 149.039062 C 155.414062 148.171875 154.90625 147.328125 154.359375 146.511719 C 153.8125 145.695312 153.226562 144.90625 152.605469 144.144531 C 151.980469 143.382812 151.320312 142.65625 150.625 141.960938 C 149.929688 141.265625 149.199219 140.605469 148.441406 139.980469 C 147.679688 139.355469 146.890625 138.769531 146.074219 138.222656 C 145.253906 137.675781 144.414062 137.171875 143.546875 136.707031 C 142.679688 136.242188 141.789062 135.820312 140.882812 135.445312 C 139.972656 135.066406 139.046875 134.734375 138.109375 134.449219 C 137.167969 134.160156 136.214844 133.921875 135.25 133.726562 C 134.285156 133.535156 133.3125 133.386719 132.335938 133.289062 C 131.355469 133.191406 130.375 133.140625 129.390625 133.136719 L 112.457031 133.136719 L 112.457031 131.46875 L 129.390625 131.46875 C 130.429688 131.472656 131.464844 131.523438 132.496094 131.628906 C 133.53125 131.730469 134.558594 131.886719 135.574219 132.089844 C 136.59375 132.292969 137.597656 132.546875 138.59375 132.851562 C 139.585938 133.152344 140.5625 133.503906 141.519531 133.902344 C 142.480469 134.300781 143.417969 134.746094 144.332031 135.234375 C 145.25 135.726562 146.136719 136.257812 147 136.835938 C 147.863281 137.414062 148.695312 138.03125 149.5 138.691406 C 150.300781 139.347656 151.070312 140.046875 151.804688 140.78125 C 152.539062 141.515625 153.234375 142.28125 153.894531 143.085938 C 154.554688 143.886719 155.171875 144.722656 155.75 145.585938 C 156.328125 146.449219 156.859375 147.335938 157.351562 148.253906 C 157.839844 149.167969 158.285156 150.105469 158.683594 151.0625 C 159.082031 152.023438 159.433594 153 159.734375 153.992188 C 160.039062 154.984375 160.292969 155.992188 160.496094 157.011719 C 160.699219 158.027344 160.855469 159.054688 160.957031 160.085938 C 161.0625 161.121094 161.113281 162.15625 161.117188 163.195312 Z M 161.117188 163.195312 " fill-opacity="1" fill-rule="nonzero"/><g clip-path="url(#3202954c5f)"><path fill="#ffffff" d="M 161.117188 120.664062 L 161.117188 201.308594 L 159.445312 201.308594 L 159.445312 120.664062 C 159.445312 119.679688 159.394531 118.699219 159.296875 117.722656 C 159.195312 116.742188 159.050781 115.769531 158.855469 114.808594 C 158.664062 113.84375 158.421875 112.890625 158.136719 111.949219 C 157.847656 111.007812 157.515625 110.082031 157.136719 109.175781 C 156.761719 108.265625 156.339844 107.378906 155.875 106.511719 C 155.410156 105.644531 154.90625 104.800781 154.359375 103.984375 C 153.8125 103.167969 153.226562 102.378906 152.601562 101.617188 C 151.976562 100.859375 151.316406 100.128906 150.621094 99.433594 C 149.925781 98.738281 149.199219 98.078125 148.4375 97.453125 C 147.675781 96.828125 146.886719 96.246094 146.070312 95.699219 C 145.253906 95.148438 144.410156 94.644531 143.542969 94.179688 C 142.675781 93.714844 141.789062 93.292969 140.878906 92.917969 C 139.972656 92.539062 139.046875 92.207031 138.105469 91.921875 C 137.164062 91.632812 136.214844 91.394531 135.25 91.199219 C 134.285156 91.003906 133.3125 90.859375 132.332031 90.761719 C 131.355469 90.660156 130.375 90.613281 129.390625 90.609375 L 70.714844 90.609375 L 70.714844 88.9375 L 129.390625 88.9375 C 130.429688 88.941406 131.464844 88.996094 132.496094 89.097656 C 133.53125 89.203125 134.554688 89.355469 135.574219 89.5625 C 136.59375 89.765625 137.597656 90.019531 138.589844 90.320312 C 139.585938 90.625 140.5625 90.976562 141.519531 91.375 C 142.476562 91.773438 143.414062 92.21875 144.332031 92.707031 C 145.246094 93.199219 146.136719 93.730469 147 94.308594 C 147.863281 94.886719 148.695312 95.503906 149.496094 96.164062 C 150.300781 96.824219 151.066406 97.519531 151.800781 98.253906 C 152.535156 98.988281 153.234375 99.757812 153.890625 100.558594 C 154.550781 101.359375 155.167969 102.195312 155.746094 103.058594 C 156.324219 103.917969 156.859375 104.808594 157.347656 105.722656 C 157.839844 106.640625 158.28125 107.578125 158.679688 108.535156 C 159.078125 109.496094 159.429688 110.472656 159.734375 111.464844 C 160.035156 112.457031 160.289062 113.460938 160.496094 114.480469 C 160.699219 115.5 160.851562 116.523438 160.957031 117.558594 C 161.0625 118.589844 161.113281 119.625 161.117188 120.664062 Z M 161.117188 120.664062 " fill-opacity="1" fill-rule="nonzero"/></g><g clip-path="url(#8926e8bdcd)"><path fill="#ffffff" d="M 276.382812 120.664062 L 276.382812 201.308594 L 274.710938 201.308594 L 274.710938 120.664062 C 274.710938 119.679688 274.660156 118.699219 274.558594 117.722656 C 274.460938 116.742188 274.316406 115.769531 274.121094 114.808594 C 273.929688 113.84375 273.6875 112.890625 273.402344 111.949219 C 273.113281 111.007812 272.78125 110.082031 272.402344 109.175781 C 272.027344 108.265625 271.605469 107.378906 271.140625 106.511719 C 270.675781 105.644531 270.171875 104.800781 269.625 103.984375 C 269.078125 103.167969 268.492188 102.378906 267.867188 101.617188 C 267.242188 100.859375 266.582031 100.128906 265.886719 99.433594 C 265.191406 98.738281 264.464844 98.078125 263.703125 97.453125 C 262.941406 96.828125 262.152344 96.246094 261.335938 95.699219 C 260.519531 95.148438 259.675781 94.644531 258.808594 94.179688 C 257.941406 93.714844 257.054688 93.292969 256.144531 92.917969 C 255.238281 92.539062 254.3125 92.207031 253.371094 91.921875 C 252.429688 91.632812 251.476562 91.394531 250.515625 91.199219 C 249.550781 91.003906 248.578125 90.859375 247.597656 90.761719 C 246.621094 90.660156 245.640625 90.613281 244.65625 90.609375 L 185.953125 90.609375 L 185.953125 88.9375 L 244.605469 88.9375 C 245.644531 88.941406 246.683594 88.992188 247.714844 89.09375 C 248.75 89.195312 249.777344 89.347656 250.796875 89.550781 C 251.816406 89.753906 252.824219 90.007812 253.816406 90.308594 C 254.8125 90.613281 255.789062 90.960938 256.75 91.359375 C 257.710938 91.757812 258.648438 92.203125 259.566406 92.691406 C 260.484375 93.179688 261.375 93.714844 262.238281 94.292969 C 263.101562 94.867188 263.9375 95.488281 264.742188 96.144531 C 265.542969 96.804688 266.3125 97.5 267.050781 98.234375 C 267.785156 98.96875 268.484375 99.738281 269.144531 100.542969 C 269.804688 101.34375 270.421875 102.175781 271 103.042969 C 271.578125 103.90625 272.113281 104.792969 272.605469 105.710938 C 273.097656 106.625 273.542969 107.566406 273.941406 108.523438 C 274.339844 109.484375 274.691406 110.460938 274.996094 111.453125 C 275.300781 112.449219 275.554688 113.457031 275.757812 114.476562 C 275.964844 115.492188 276.117188 116.519531 276.222656 117.554688 C 276.324219 118.589844 276.378906 119.625 276.382812 120.664062 Z M 276.382812 120.664062 " fill-opacity="1" fill-rule="nonzero"/></g><g clip-path="url(#882a2fe88d)"><path fill="#ffffff" d="M 112.875 138.296875 L 112.875 284.8125 L 96.90625 284.8125 C 95.097656 284.8125 93.296875 284.71875 91.496094 284.542969 C 89.699219 284.363281 87.914062 284.097656 86.140625 283.742188 C 84.371094 283.386719 82.621094 282.949219 80.890625 282.421875 C 79.164062 281.894531 77.464844 281.285156 75.796875 280.59375 C 74.125 279.902344 72.496094 279.128906 70.902344 278.277344 C 69.308594 277.421875 67.761719 276.496094 66.261719 275.492188 C 64.757812 274.484375 63.308594 273.410156 61.914062 272.261719 C 60.515625 271.117188 59.179688 269.90625 57.902344 268.625 C 56.625 267.347656 55.410156 266.011719 54.265625 264.613281 C 53.121094 263.21875 52.042969 261.769531 51.039062 260.265625 C 50.035156 258.765625 49.109375 257.214844 48.257812 255.621094 C 47.402344 254.03125 46.632812 252.398438 45.941406 250.730469 C 45.246094 249.058594 44.640625 247.359375 44.113281 245.632812 C 43.589844 243.902344 43.148438 242.152344 42.796875 240.382812 C 42.441406 238.609375 42.175781 236.824219 41.996094 235.027344 C 41.816406 233.226562 41.726562 231.425781 41.726562 229.617188 L 41.726562 88.523438 L 63.101562 88.523438 C 64.730469 88.523438 66.355469 88.605469 67.976562 88.765625 C 69.597656 88.929688 71.207031 89.167969 72.804688 89.488281 C 74.40625 89.808594 75.984375 90.203125 77.542969 90.679688 C 79.101562 91.152344 80.632812 91.703125 82.140625 92.328125 C 83.644531 92.949219 85.117188 93.648438 86.550781 94.417969 C 87.988281 95.183594 89.386719 96.023438 90.738281 96.929688 C 92.09375 97.835938 93.402344 98.804688 94.660156 99.839844 C 95.921875 100.871094 97.128906 101.964844 98.28125 103.117188 C 99.433594 104.269531 100.527344 105.476562 101.558594 106.734375 C 102.59375 107.996094 103.5625 109.304688 104.46875 110.65625 C 105.375 112.011719 106.210938 113.410156 106.980469 114.84375 C 107.75 116.28125 108.445312 117.753906 109.070312 119.257812 C 109.695312 120.765625 110.246094 122.296875 110.71875 123.855469 C 111.195312 125.414062 111.589844 126.992188 111.910156 128.589844 C 112.230469 130.1875 112.46875 131.800781 112.632812 133.421875 C 112.792969 135.042969 112.875 136.667969 112.875 138.296875 Z M 112.875 138.296875 " fill-opacity="1" fill-rule="nonzero"/></g><g clip-path="url(#71309cc567)"><path fill="#ffffff" d="M 333.296875 254.824219 C 333.296875 255.785156 333.25 256.742188 333.15625 257.695312 C 333.0625 258.652344 332.921875 259.597656 332.734375 260.539062 C 332.546875 261.480469 332.316406 262.410156 332.035156 263.328125 C 331.757812 264.246094 331.4375 265.148438 331.070312 266.035156 C 330.703125 266.921875 330.292969 267.789062 329.839844 268.636719 C 329.386719 269.480469 328.894531 270.304688 328.363281 271.101562 C 327.828125 271.902344 327.257812 272.671875 326.652344 273.414062 C 326.042969 274.152344 325.398438 274.863281 324.71875 275.542969 C 324.042969 276.222656 323.332031 276.867188 322.589844 277.472656 C 321.847656 278.082031 321.078125 278.65625 320.28125 279.1875 C 319.484375 279.722656 318.660156 280.214844 317.816406 280.667969 C 316.96875 281.117188 316.101562 281.527344 315.214844 281.894531 C 314.332031 282.265625 313.429688 282.585938 312.511719 282.867188 C 311.589844 283.144531 310.660156 283.378906 309.722656 283.566406 C 308.78125 283.753906 307.832031 283.894531 306.878906 283.988281 C 305.921875 284.082031 304.964844 284.128906 304.003906 284.128906 C 303.046875 284.128906 302.089844 284.082031 301.132812 283.988281 C 300.179688 283.894531 299.230469 283.753906 298.289062 283.566406 C 297.347656 283.378906 296.417969 283.148438 295.5 282.867188 C 294.582031 282.589844 293.679688 282.269531 292.792969 281.902344 C 291.90625 281.535156 291.039062 281.125 290.195312 280.671875 C 289.347656 280.21875 288.523438 279.726562 287.726562 279.195312 C 286.929688 278.660156 286.160156 278.089844 285.417969 277.480469 C 284.675781 276.871094 283.964844 276.230469 283.285156 275.550781 C 282.609375 274.871094 281.964844 274.164062 281.355469 273.421875 C 280.746094 272.679688 280.175781 271.910156 279.644531 271.113281 C 279.109375 270.3125 278.617188 269.492188 278.164062 268.644531 C 277.710938 267.800781 277.300781 266.933594 276.933594 266.046875 C 276.566406 265.160156 276.246094 264.257812 275.964844 263.339844 C 275.6875 262.421875 275.453125 261.492188 275.265625 260.550781 C 275.078125 259.609375 274.9375 258.660156 274.84375 257.707031 C 274.75 256.753906 274.703125 255.792969 274.703125 254.835938 C 274.703125 253.875 274.75 252.917969 274.84375 251.964844 C 274.9375 251.007812 275.078125 250.058594 275.265625 249.121094 C 275.453125 248.179688 275.6875 247.25 275.964844 246.332031 C 276.242188 245.410156 276.566406 244.507812 276.933594 243.625 C 277.300781 242.738281 277.710938 241.871094 278.160156 241.023438 C 278.613281 240.175781 279.105469 239.355469 279.640625 238.558594 C 280.171875 237.761719 280.742188 236.988281 281.351562 236.25 C 281.960938 235.507812 282.605469 234.796875 283.28125 234.117188 C 283.960938 233.4375 284.671875 232.796875 285.414062 232.1875 C 286.15625 231.578125 286.925781 231.007812 287.722656 230.472656 C 288.519531 229.941406 289.34375 229.449219 290.1875 228.996094 C 291.035156 228.542969 291.902344 228.132812 292.789062 227.765625 C 293.675781 227.398438 294.578125 227.078125 295.496094 226.796875 C 296.414062 226.519531 297.34375 226.285156 298.285156 226.097656 C 299.226562 225.910156 300.171875 225.769531 301.128906 225.675781 C 302.082031 225.582031 303.039062 225.535156 304 225.535156 C 304.960938 225.535156 305.917969 225.582031 306.871094 225.675781 C 307.824219 225.769531 308.773438 225.910156 309.714844 226.097656 C 310.65625 226.285156 311.585938 226.515625 312.503906 226.796875 C 313.421875 227.074219 314.324219 227.394531 315.210938 227.761719 C 316.097656 228.128906 316.964844 228.539062 317.808594 228.992188 C 318.65625 229.445312 319.476562 229.9375 320.273438 230.46875 C 321.074219 231 321.84375 231.574219 322.585938 232.179688 C 323.328125 232.789062 324.035156 233.433594 324.714844 234.109375 C 325.394531 234.789062 326.035156 235.5 326.644531 236.242188 C 327.253906 236.984375 327.824219 237.753906 328.359375 238.550781 C 328.890625 239.347656 329.382812 240.167969 329.835938 241.015625 C 330.289062 241.863281 330.699219 242.726562 331.066406 243.613281 C 331.433594 244.5 331.757812 245.402344 332.035156 246.320312 C 332.3125 247.238281 332.546875 248.167969 332.734375 249.109375 C 332.921875 250.050781 333.0625 251 333.15625 251.953125 C 333.25 252.90625 333.296875 253.863281 333.296875 254.824219 Z M 333.296875 254.824219 " fill-opacity="1" fill-rule="nonzero"/></g><path fill="#ffffff" d="M 276.382812 163.195312 L 276.382812 243.8125 L 274.710938 243.8125 L 274.710938 163.195312 C 274.710938 162.210938 274.660156 161.230469 274.5625 160.25 C 274.460938 159.273438 274.316406 158.300781 274.125 157.335938 C 273.929688 156.371094 273.691406 155.417969 273.402344 154.476562 C 273.117188 153.535156 272.785156 152.613281 272.40625 151.703125 C 272.027344 150.792969 271.609375 149.90625 271.144531 149.039062 C 270.679688 148.171875 270.171875 147.328125 269.625 146.511719 C 269.078125 145.695312 268.492188 144.90625 267.867188 144.144531 C 267.246094 143.382812 266.585938 142.65625 265.890625 141.960938 C 265.195312 141.265625 264.464844 140.605469 263.707031 139.980469 C 262.945312 139.355469 262.15625 138.769531 261.339844 138.222656 C 260.519531 137.675781 259.679688 137.171875 258.8125 136.707031 C 257.945312 136.242188 257.054688 135.820312 256.148438 135.445312 C 255.238281 135.066406 254.3125 134.734375 253.371094 134.449219 C 252.433594 134.160156 251.480469 133.921875 250.515625 133.726562 C 249.550781 133.535156 248.578125 133.386719 247.597656 133.289062 C 246.621094 133.191406 245.640625 133.140625 244.65625 133.136719 L 227.699219 133.136719 L 227.699219 131.46875 L 244.605469 131.46875 C 245.644531 131.46875 246.683594 131.519531 247.714844 131.621094 C 248.75 131.726562 249.777344 131.878906 250.796875 132.082031 C 251.816406 132.285156 252.824219 132.535156 253.820312 132.839844 C 254.8125 133.140625 255.792969 133.488281 256.75 133.886719 C 257.710938 134.285156 258.652344 134.726562 259.566406 135.21875 C 260.484375 135.707031 261.375 136.242188 262.238281 136.820312 C 263.105469 137.394531 263.9375 138.015625 264.742188 138.671875 C 265.546875 139.332031 266.316406 140.027344 267.050781 140.761719 C 267.789062 141.496094 268.484375 142.265625 269.144531 143.070312 C 269.804688 143.871094 270.425781 144.707031 271.003906 145.570312 C 271.582031 146.433594 272.117188 147.324219 272.609375 148.238281 C 273.097656 149.15625 273.542969 150.09375 273.945312 151.050781 C 274.34375 152.011719 274.695312 152.988281 274.996094 153.984375 C 275.300781 154.976562 275.554688 155.984375 275.757812 157.003906 C 275.964844 158.023438 276.117188 159.050781 276.222656 160.082031 C 276.328125 161.117188 276.378906 162.15625 276.382812 163.195312 Z M 276.382812 163.195312 " fill-opacity="1" fill-rule="nonzero"/><g clip-path="url(#84ababb81a)"><path fill="#ffffff" d="M 228.117188 138.296875 L 228.117188 284.8125 L 212.144531 284.8125 C 210.335938 284.8125 208.535156 284.722656 206.734375 284.542969 C 204.9375 284.367188 203.152344 284.097656 201.378906 283.746094 C 199.605469 283.390625 197.855469 282.953125 196.125 282.425781 C 194.398438 281.902344 192.699219 281.292969 191.027344 280.601562 C 189.359375 279.910156 187.726562 279.136719 186.132812 278.285156 C 184.539062 277.433594 182.992188 276.503906 181.488281 275.5 C 179.984375 274.496094 178.535156 273.417969 177.136719 272.273438 C 175.742188 271.125 174.402344 269.914062 173.125 268.636719 C 171.847656 267.359375 170.636719 266.019531 169.488281 264.625 C 168.339844 263.226562 167.265625 261.777344 166.261719 260.273438 C 165.257812 258.769531 164.328125 257.222656 163.476562 255.628906 C 162.621094 254.035156 161.851562 252.40625 161.15625 250.734375 C 160.464844 249.066406 159.855469 247.367188 159.332031 245.636719 C 158.804688 243.90625 158.363281 242.15625 158.011719 240.382812 C 157.65625 238.613281 157.390625 236.828125 157.210938 235.027344 C 157.035156 233.230469 156.945312 231.425781 156.941406 229.617188 L 156.941406 88.523438 L 178.316406 88.523438 C 179.945312 88.523438 181.570312 88.605469 183.195312 88.765625 C 184.816406 88.925781 186.425781 89.164062 188.023438 89.484375 C 189.625 89.800781 191.203125 90.199219 192.761719 90.671875 C 194.324219 91.144531 195.855469 91.695312 197.363281 92.320312 C 198.867188 92.941406 200.339844 93.640625 201.777344 94.410156 C 203.214844 95.175781 204.613281 96.015625 205.96875 96.917969 C 207.324219 97.824219 208.632812 98.796875 209.890625 99.828125 C 211.152344 100.863281 212.359375 101.957031 213.511719 103.109375 C 214.664062 104.261719 215.757812 105.46875 216.792969 106.726562 C 217.828125 107.988281 218.796875 109.292969 219.703125 110.648438 C 220.609375 112.003906 221.449219 113.402344 222.21875 114.839844 C 222.988281 116.277344 223.683594 117.746094 224.308594 119.253906 C 224.933594 120.757812 225.484375 122.292969 225.957031 123.851562 C 226.433594 125.410156 226.832031 126.988281 227.148438 128.589844 C 227.46875 130.1875 227.710938 131.796875 227.871094 133.417969 C 228.03125 135.042969 228.113281 136.667969 228.117188 138.296875 Z M 228.117188 138.296875 " fill-opacity="1" fill-rule="nonzero"/></g></svg>